<svg width="24" height="24" viewBox="0 0 24 24" fill="none" xmlns="http://www.w3.org/2000/svg">
<path d="M23.0004 6.99996C21.2378 6.90297 19.4891 7.36113 18.0004 8.30996C17.6404 7.89996 17.2704 7.48996 16.8804 7.09996L16.5904 6.82996L16.7304 6.70996C17.2195 6.29016 17.568 5.73047 17.7289 5.10639C17.8898 4.48231 17.8555 3.82389 17.6304 3.21996C17.3054 2.53813 16.7893 1.96539 16.1449 1.57129C15.5005 1.1772 14.7555 0.978716 14.0004 0.999956V2.99996C14.3562 2.995 14.7069 3.08506 15.0163 3.26085C15.3257 3.43663 15.5826 3.69178 15.7604 3.99996C15.9304 4.39996 15.7604 4.83996 15.2904 5.30996L15.0604 5.51996C14.0174 4.65081 12.8723 3.91203 11.6504 3.31996C9.12045 2.17996 7.82044 2.70996 7.18044 3.31996C6.98543 3.51544 6.82933 3.7462 6.72044 3.99996L6.54044 4.52996L5.10044 8.86996C6.24044 11.71 9.00045 16.76 15.0004 18.94L20.0004 17.28C20.1691 17.2172 20.3176 17.1101 20.4304 16.97L20.6404 16.79C22.0704 15.35 21.1504 12.58 19.2304 9.88996C20.3705 9.22461 21.6832 8.91471 23.0004 8.99996V6.99996ZM19.2104 15.37H19.1504C18.4604 15.74 15.6004 14.8 12.3604 11.56C12.0204 11.22 11.7004 10.89 11.4104 10.56C11.3104 10.45 11.2204 10.33 11.1204 10.21L10.5904 9.56995L10.3104 9.17996C10.1704 8.98996 10.0304 8.79996 9.91044 8.61996C9.79044 8.43996 9.75044 8.35996 9.67044 8.22996C9.59045 8.09996 9.45044 7.88996 9.36044 7.71996C9.27044 7.54996 9.23044 7.47996 9.17044 7.34996C9.11045 7.21996 9.00044 7.06996 8.94044 6.92996C8.88044 6.78996 8.85045 6.69996 8.80045 6.58996C8.75044 6.47996 8.69044 6.31996 8.65044 6.18996C8.61044 6.05996 8.60044 5.99996 8.58044 5.89996C8.56044 5.79996 8.52044 5.65996 8.50044 5.55996C8.49564 5.48003 8.49564 5.39988 8.50044 5.31996C8.49062 5.23357 8.49062 5.14634 8.50044 5.05996L8.61044 4.74996C8.78044 4.56996 9.52045 4.51996 10.8404 5.11996C11.7226 5.54374 12.5573 6.05997 13.3304 6.65996C12.9089 6.84598 12.4595 6.96087 12.0004 6.99996V8.99996C13.0628 8.93968 14.0936 8.61669 15.0004 8.05996L15.4904 8.51996C15.9304 8.94996 16.3204 9.37996 16.6804 9.78996C16.0775 10.8181 15.838 12.0192 16.0004 13.2L18.0004 12.81C17.9329 12.433 17.9329 12.0469 18.0004 11.67C19.2904 13.64 19.5304 15.06 19.2104 15.37ZM4.40044 11L2.17044 17.7C2.00949 18.1919 1.96723 18.7149 2.04712 19.2262C2.12701 19.7376 2.32677 20.2228 2.63009 20.6422C2.93341 21.0616 3.33166 21.4032 3.7923 21.6392C4.25293 21.8752 4.76288 21.9988 5.28045 22C5.62068 21.9966 5.95823 21.9393 6.28045 21.83L12.8004 19.66C9.12058 17.7806 6.16678 14.7354 4.40044 11Z" fill="#24164C"/>
</svg>
