<svg width="25" height="25" viewBox="0 0 25 25" fill="none" xmlns="http://www.w3.org/2000/svg">
<path d="M22.3359 4H3.19531C3.08789 4 3 4.08789 3 4.19531V5.75781C3 5.86523 3.08789 5.95312 3.19531 5.95312H22.3359C22.4434 5.95312 22.5312 5.86523 22.5312 5.75781V4.19531C22.5312 4.08789 22.4434 4 22.3359 4ZM22.3359 19.2344H3.19531C3.08789 19.2344 3 19.3223 3 19.4297V20.9922C3 21.0996 3.08789 21.1875 3.19531 21.1875H22.3359C22.4434 21.1875 22.5312 21.0996 22.5312 20.9922V19.4297C22.5312 19.3223 22.4434 19.2344 22.3359 19.2344ZM22.3359 11.6172H3.19531C3.08789 11.6172 3 11.7051 3 11.8125V13.375C3 13.4824 3.08789 13.5703 3.19531 13.5703H22.3359C22.4434 13.5703 22.5312 13.4824 22.5312 13.375V11.8125C22.5312 11.7051 22.4434 11.6172 22.3359 11.6172Z" fill="white"/>
</svg>
