<svg 
id="Layer_1" 
data-name="Layer 1" 
xmlns="http://www.w3.org/2000/svg" 
viewBox="0 0 1200 276.69"><defs><style>.cls-1{fill:#24164c;}.cls-2{fill:#7546f6;}.cls-3{fill:#f18902;}</style></defs><path 
class="cls-1" 
d="M285.14,179.2l30.1-16.91c6,11.46,15.48,16.34,29.82,16.34,13.2,0,21.51-5.16,21.51-13.48,0-22.94-78-3.15-78-57.92,0-25.51,22.36-45.59,57.35-45.59,30.38,0,48.73,14.34,57.34,30.69l-30.11,16.91c-4.59-10.32-14.9-15.19-26.38-15.19-10,0-17.49,4.87-17.49,12.32,0,22.94,78,4.59,78,57.92,0,28.67-27.81,47-60.21,47C317.54,211.31,296.89,200.42,285.14,179.2Z"/><path 
class="cls-1" d="M411,236l33.55-18.35c6.3,12.33,18.92,21.79,37.27,21.79,24.37,0,38.42-17.77,38.42-44.15v-4C512.5,202.71,499.88,209,482.39,209c-46.16,0-66.23-29.53-66.23-71.68v-72H456.3v70.54c0,20.64,11.18,34.69,31.25,34.69,18.35,0,32.11-15.2,32.11-35.55V65.37H561V194.68c0,49.61-31.83,82-78.56,82C448.56,276.69,423.9,262.35,411,236Z"/><path class="cls-1" d="M825.59,133V207.3H784.87V139.92c0-21.79-9.46-40.14-31.83-40.14-22.07,0-31.54,18.06-31.54,39.57v68H680.79V139.63c0-21.79-9.46-39.85-31.54-39.85-22.65,0-31.54,18.35-31.54,39.85V207.3H577V133c0-39.57,23.22-72.83,69.1-72.83,27.24,0,47,12,55.33,31.54,8.89-19.5,29-31.54,54.48-31.54C802.07,60.21,825.59,93.47,825.59,133Z"/><path 
class="cls-1" d="M838.17,136.48V0h40.72V74.55a64.12,64.12,0,0,1,38.42-13.19c44.16,0,74.55,31,74.55,75.12,0,41-33,74.83-76.84,74.83C870.86,211.31,838.17,179.49,838.17,136.48Zm113,0c0-20.07-15.2-36.7-36.13-36.7s-36.13,16.63-36.13,36.7S894.09,172.9,915,172.9,951.15,156.55,951.15,136.48Z"/><path class="cls-1" d="M1044,0V207.3h-40.71V0Z"/><path class="cls-1" d="M1055.2,135.05c0-41,29.82-74.84,73.7-74.84,45,0,71.1,33.26,71.1,72v12H1094.48c2.87,18.93,17.49,31.54,37.85,31.54,15.49,0,28.39-7.45,35-20.64l31.26,15.77c-12.34,25.51-35.84,40.14-66,40.14C1088.46,211,1055.2,180.35,1055.2,135.05Zm104.37-13.48c-1.72-14.62-13.76-25.81-31-25.81-17.78,0-29.54,11.47-32.4,25.81Z"/><path 
class="cls-2" d="M62,200.88c28.15,19.72,67.12,13.79,88.72-13.51l5.26-6.64,27.4,20-5.73,7.17a104.08,104.08,0,0,1-63.78,37.47c-25.32,4.36-50.43-.78-70.72-14.44C21.38,216.32,6.68,193.7,1.75,167.29A100.27,100.27,0,0,1,18.11,91.05l5.14-7.38,27.3,20-4.81,7C25.64,140.06,32.91,180.53,62,200.88Z"/><path class="cls-3" d="M209.8,164.63l-30.12,4.84-17.54-109L53.09,78,48.24,47.88,158.35,30.15a28.8,28.8,0,0,1,10.53.22l1.08.23A29,29,0,0,1,192,54.28Z"/><circle class="cls-2" cx="107.85" cy="135.19" r="37.54"/></svg>